<mxfile host="Electron" agent="Mozilla/5.0 (Macintosh; Intel Mac OS X 10_15_7) AppleWebKit/537.36 (KHTML, like Gecko) draw.io/24.7.17 Chrome/128.0.6613.36 Electron/32.0.1 Safari/537.36" version="24.7.17">
  <diagram name="Page-1" id="M3BffaQf4yGtLG9Bgyzk">
    <mxGraphModel dx="1214" dy="791" grid="1" gridSize="10" guides="1" tooltips="1" connect="1" arrows="1" fold="1" page="1" pageScale="1" pageWidth="827" pageHeight="1169" math="0" shadow="0">
      <root>
        <mxCell id="0" />
        <mxCell id="1" parent="0" />
        <mxCell id="VSY3t3KkXbQNRABJx7bC-1" value="Kubenetes&amp;nbsp;" style="swimlane;whiteSpace=wrap;html=1;" vertex="1" parent="1">
          <mxGeometry x="50" y="130" width="670" height="470" as="geometry" />
        </mxCell>
        <mxCell id="VSY3t3KkXbQNRABJx7bC-2" value="" style="shape=image;aspect=fixed;image=data:image/svg+xml,PHN2ZyB3aWR0aD0iMjkxIiBoZWlnaHQ9IjIwOCIgdmlld0JveD0iMCAwIDI5MSAyMDgiIGZpbGw9Im5vbmUiIHhtbG5zPSJodHRwOi8vd3d3LnczLm9yZy8yMDAwL3N2ZyI+CjxyZWN0IHdpZHRoPSIyOTEiIGhlaWdodD0iMjA4IiBmaWxsPSJ3aGl0ZSIvPgo8cGF0aCBkPSJNMTA1Ljg5OSA0Mi42QzEwNC44OTkgNDAuMyAxMDIuNzk5IDM5IDk5Ljk5OTIgMzlDOTcuOTk5MiAzOSA5NS4xOTkyIDQwLjEgOTMuNzk5MiA0My40TDgzLjQ5OTIgNjQuOUM4Mi4zOTkyIDY2LjggODIuNzk5MiA2OC4xIDgzLjI5OTIgNjguOUM4My45OTkyIDcwIDg1LjM5OTIgNzAuNSA4Ni4wOTkyIDcwLjVIODYuMTk5MkM4Ny40OTkyIDcwLjUgODguNjk5MiA2OS43IDg5LjI5OTIgNjguNEM4OS40OTkyIDY3LjkgOTAuMjk5MiA2Ni4yIDkwLjk5OTIgNjQuOEM5MS40OTkyIDYzLjggOTEuNzk5MiA2My4yIDkxLjg5OTIgNjIuOUg5OS45OTkyQzEwMS43OTkgNjIuOSAxMDMuMTk5IDYxLjQgMTAzLjE5OSA1OS41QzEwMy4xOTkgNTcuNiAxMDEuNzk5IDU2LjEgOTkuOTk5MiA1Ni4xSDk1LjA5OTJMOTkuNTk5MiA0Ni44VjQ2LjdDOTkuNzk5MiA0Ni4zIDk5Ljg5OTIgNDYuMyA5OS43OTkyIDQ2LjNDOTkuODk5MiA0Ni4zIDk5Ljk5OTIgNDYuMyA5OS45OTkyIDQ2LjNDMTAwLjA5OSA0Ni4zIDEwMC4xOTkgNDYuNyAxMDAuMjk5IDQ2LjhMMTEwLjU5OSA2OC40QzExMC44OTkgNjkgMTExLjY5OSA3MCAxMTIuODk5IDcwLjRDMTEzLjc5OSA3MC42IDExNC43OTkgNzAuNSAxMTUuNjk5IDY5LjhDMTE3LjE5OSA2OC45IDExNy40OTkgNjYuOSAxMTYuNTk5IDY1LjJMMTA1Ljg5OSA0Mi42WiIgZmlsbD0iIzI2MDBGRiIvPgo8cGF0aCBkPSJNMTM4LjIwMSA1MS4zOTk5SDEyOS41MDFDMTI3LjQwMSA1MS4zOTk5IDEyNi4wMDEgNTAuMjk5OSAxMjYuMDAxIDQ4LjM5OTlDMTI2LjAwMSA0Ni40OTk5IDEyNy4zMDEgNDUuMzk5OSAxMjkuNTAxIDQ1LjM5OTlIMTQzLjYwMUMxNDUuNjAxIDQ1LjM5OTkgMTQ2LjYwMSA0My42OTk5IDE0Ni42MDEgNDIuMDk5OUMxNDYuNjAxIDQwLjI5OTkgMTQ1LjMwMSAzOC44OTk5IDE0My42MDEgMzguODk5OUgxMjkuNDAxQzEyMy45MDEgMzguODk5OSAxMTkuODAxIDQyLjk5OTkgMTE5LjgwMSA0OC4yOTk5QzExOS44MDEgNTMuNjk5OSAxMjMuOTAxIDU3LjY5OTkgMTI5LjQwMSA1Ny42OTk5SDEzOC4wMDFDMTQwLjEwMSA1Ny42OTk5IDE0MS41MDEgNTguOTk5OSAxNDEuNTAxIDYwLjg5OTlDMTQxLjUwMSA2Mi43OTk5IDE0MC4yMDEgNjMuODk5OSAxMzguMDAxIDYzLjg5OTlIMTI0LjAwMUMxMjIuMzAxIDYzLjg5OTkgMTIxLjAwMSA2NS4yOTk5IDEyMS4wMDEgNjcuMDk5OUMxMjEuMDAxIDY3Ljk5OTkgMTIxLjMwMSA2OC44OTk5IDEyMS45MDEgNjkuNDk5OUMxMjIuNTAxIDcwLjA5OTkgMTIzLjIwMSA3MC4zOTk5IDEyNC4wMDEgNzAuMzk5OUgxMzguMTAxQzE0My42MDEgNzAuMzk5OSAxNDcuNjAxIDY2LjM5OTkgMTQ3LjYwMSA2MC45OTk5QzE0Ny42MDEgNTUuNjk5OSAxNDMuNTAxIDUxLjM5OTkgMTM4LjIwMSA1MS4zOTk5WiIgZmlsbD0iIzI2MDBGRiIvPgo8cGF0aCBkPSJNMTc2LjQwMiAzOUgxNTMuNTAyQzE1MS42MDIgMzkgMTUwLjEwMiA0MC40IDE1MC4xMDIgNDIuMkMxNTAuMTAyIDQzLjkgMTUxLjYwMiA0NS40IDE1My41MDIgNDUuNEgxNjEuNjAyVjY3LjNDMTYxLjYwMiA2OS4yIDE2My4xMDIgNzAuNyAxNjUuMDAyIDcwLjdDMTY2LjkwMiA3MC43IDE2OC40MDIgNjkuMiAxNjguNDAyIDY3LjNWNDUuM0gxNzYuNTAyQzE3OC40MDIgNDUuMyAxNzkuOTAyIDQzLjkgMTc5LjkwMiA0Mi4xQzE3OS44MDIgNDAuNCAxNzguMzAyIDM5IDE3Ni40MDIgMzlaIiBmaWxsPSIjMjYwMEZGIi8+CjxwYXRoIGQ9Ik0xODYuODAyIDQ1LjRIMjA3LjIwMkMyMDkuMTAyIDQ1LjQgMjEwLjYwMiA0NCAyMTAuNjAyIDQyLjJDMjEwLjYwMiA0MC40IDIwOS4xMDIgMzkgMjA3LjIwMiAzOUgxODYuODAyQzE4NC45MDIgMzkgMTgzLjQwMiA0MC40IDE4My40MDIgNDIuMkMxODMuNDAyIDQ0IDE4NC45MDIgNDUuNCAxODYuODAyIDQ1LjRaIiBmaWxsPSIjMjYwMEZGIi8+CjxwYXRoIGQ9Ik0xOTEuNSA1Ny42OTk4SDIwNy4zQzIwOS4yIDU3LjY5OTggMjEwLjcgNTYuMjk5OCAyMTAuNyA1NC40OTk4QzIxMC43IDUyLjc5OTggMjA5LjIgNTEuMjk5OCAyMDcuMyA1MS4yOTk4SDE5MC43QzE5MC41IDUxLjI5OTggMTg4LjYgNTEuMjk5OCAxODcuOCA1MS41OTk4QzE4Ny4zIDUxLjc5OTggMTg2LjggNTEuOTk5OCAxODYuMyA1Mi4yOTk4QzE4NC42IDUzLjM5OTggMTgzLjYgNTUuMjk5OCAxODMuNSA1Ny4zOTk4VjYyLjU5OThWNjQuODk5OEMxODMuNyA2Ni43OTk4IDE4NC43IDY4LjQ5OTggMTg2LjIgNjkuNDk5OEMxODYuNiA2OS43OTk4IDE4Ny4xIDY5Ljk5OTggMTg3LjcgNzAuMTk5OEMxODguNSA3MC40OTk4IDE5MC41IDcwLjQ5OTggMTkwLjYgNzAuNDk5OEgyMDcuM0MyMDkuMiA3MC40OTk4IDIxMC43IDY5LjA5OTggMjEwLjcgNjcuMjk5OEMyMTAuNyA2NS40OTk4IDIwOS4yIDY0LjA5OTggMjA3LjMgNjQuMDk5OEgxOTEuNUMxOTAuOCA2NC4wOTk4IDE4OS45IDYzLjY5OTggMTg5LjkgNjIuNzk5OFY1OC43OTk4QzE4OS44IDU3Ljk5OTggMTkwLjMgNTcuNjk5OCAxOTEuNSA1Ny42OTk4WiIgZmlsbD0iIzI2MDBGRiIvPgo8cGF0aCBkPSJNNTEuMjAwOCAzOUM0OS4zMDA4IDM5IDQ3LjgwMDggNDAuNSA0Ny44MDA4IDQyLjRWNjcuMUM0Ny44MDA4IDY5IDQ5LjMwMDggNzAuNSA1MS4yMDA4IDcwLjVDNTMuMTAwOCA3MC41IDU0LjYwMDggNjkgNTQuNjAwOCA2Ny4xVjQyLjRDNTQuNjAwOCA0MC41IDUzLjEwMDggMzkgNTEuMjAwOCAzOVoiIGZpbGw9IiMyNjAwRkYiLz4KPHBhdGggZD0iTTc3LjkwMDggNjQuNTk5OUw2Ni41MDA4IDU0Ljc5OTlMNzcuODAwOCA0NS4wOTk5Qzc5LjEwMDggNDMuOTk5OSA3OS40MDA4IDQyLjE5OTkgNzguNjAwOCA0MC43OTk5Qzc4LjEwMDggMzkuODk5OSA3Ny4yMDA4IDM5LjI5OTkgNzYuMjAwOCAzOS4wOTk5Qzc1LjIwMDggMzguODk5OSA3NC4yMDA4IDM5LjE5OTkgNzMuNDAwOCAzOS44OTk5TDU3LjMwMDggNTMuNjk5OUM1Ny4wMDA4IDUzLjk5OTkgNTYuODAwOCA1NC4zOTk5IDU2LjgwMDggNTQuNzk5OUM1Ni44MDA4IDU1LjE5OTkgNTcuMDAwOCA1NS41OTk5IDU3LjMwMDggNTUuODk5OUw3My4zMDA4IDY5LjY5OTlDNzQuMDAwOCA3MC4yOTk5IDc0LjgwMDggNzAuNTk5OSA3NS42MDA4IDcwLjU5OTlDNzYuMzAwOCA3MC41OTk5IDc3LjAwMDggNzAuMzk5OSA3Ny42MDA4IDY5Ljg5OTlDNzguNDAwOCA2OS4yOTk5IDc4LjkwMDggNjguMjk5OSA3OC45MDA4IDY3LjI5OTlDNzkuMTAwOCA2Ni4xOTk5IDc4LjYwMDggNjUuMTk5OSA3Ny45MDA4IDY0LjU5OTlaIiBmaWxsPSIjMjYwMEZGIi8+CjxwYXRoIGQ9Ik0yNDAuMzk5IDM5QzIzOC4yOTkgMzkgMjM2Ljk5OSA0MC44IDIzNi45OTkgNDIuMlY2MS4zQzIzMy45OTkgNTYuNSAyMjUuMTk5IDQyLjQgMjI0Ljk5OSA0Mi4yQzIyNC4xOTkgNDEgMjIyLjI5OSAzOSAyMTkuNzk5IDM5QzIxNi42OTkgMzkgMjE0LjE5OSA0MS43IDIxNC4xOTkgNDUuMVY2Ny4yQzIxNC4xOTkgNjkuMSAyMTUuNTk5IDcwLjYgMjE3LjM5OSA3MC42QzIxOS4xOTkgNzAuNiAyMjAuNTk5IDY5LjEgMjIwLjU5OSA2Ny4yVjQ3LjRMMjMyLjc5OSA2Ni43QzIzNC4wOTkgNjguNSAyMzUuNjk5IDcwLjYgMjM4LjI5OSA3MC42QzI0MS41OTkgNzAuNiAyNDMuODk5IDY4LjIgMjQzLjg5OSA2NC41VjQyLjRDMjQzLjc5OSA0MC41IDI0Mi4yOTkgMzkgMjQwLjM5OSAzOVoiIGZpbGw9IiMyNjAwRkYiLz4KPHBhdGggZD0iTTIzOC40IDE2OS44SDUzLjFDNTAgMTY5LjggNDcuNSAxNjcuMyA0Ny41IDE2NC4yVjgyLjQwMDFDNDcuNSA3OS4zMDAxIDUwIDc2LjggNTMuMSA3Ni44SDIzOC4zQzI0MS40IDc2LjggMjQzLjkgNzkuMzAwMSAyNDMuOSA4Mi40MDAxVjE2NC4yQzI0NCAxNjcuMyAyNDEuNSAxNjkuOCAyMzguNCAxNjkuOFoiIGZpbGw9IiMyNjAwRkYiLz4KPHBhdGggZD0iTTc1Ljk5ODQgOTIuNDAwMUM3Mi42OTg0IDkyLjQwMDEgNjkuODk4NCA5NS4xMDAxIDY5Ljg5ODQgOTguNTAwMVYxNDguMUM2OS44OTg0IDE1MS40IDcyLjU5ODQgMTU0LjIgNzUuOTk4NCAxNTQuMkM3OS4yOTg0IDE1NC4yIDgyLjA5ODQgMTUxLjUgODIuMDk4NCAxNDguMVY5OC41MDAxQzgxLjk5ODQgOTUuMTAwMSA3OS4yOTg0IDkyLjQwMDEgNzUuOTk4NCA5Mi40MDAxWiIgZmlsbD0id2hpdGUiLz4KPHBhdGggZD0iTTExOS45OTcgOTIuNDAwMUMxMTguNTk3IDkyLjQwMDEgMTE3LjI5NyA5Mi45MDAxIDExNi4xOTcgOTMuOTAwMUwxMDQuOTk3IDEwNEMxMDQuODk3IDEwNCAxMDQuODk3IDEwNC4xIDEwNC44OTcgMTA0LjFMODYuMTk2OSAxMjFDODUuNDk2OSAxMjEuNiA4NC43OTY5IDEyMi4yIDg0Ljc5NjkgMTIzLjJDODQuNzk2OSAxMjQuNCA4NS42OTY5IDEyNS4yIDg2LjM5NjkgMTI1LjhDODYuNTk2OSAxMjYgODYuNzk2OSAxMjYuMSA4Ni44OTY5IDEyNi4zTDEwMC4wOTcgMTM3LjdMMTE2LjA5NyAxNTIuOUMxMTcuMjk3IDE1My45IDExOC42OTcgMTU0LjQgMTIwLjI5NyAxNTQuMkMxMjEuNzk3IDE1NC4xIDEyMy4xOTcgMTUzLjMgMTI0LjE5NyAxNTIuMUMxMjYuMTk3IDE0OS42IDEyNS44OTcgMTQ1LjggMTIzLjQ5NyAxNDMuN0wxMDEuMjk3IDEyMy4xTDExMi4xOTcgMTEzLjNDMTEyLjM5NyAxMTMuMiAxMTIuNDk3IDExMy4xIDExMi41OTcgMTEzTDEyMy43OTcgMTAyLjlDMTI2LjE5NyAxMDAuNyAxMjYuMzk3IDk3LjAwMDEgMTI0LjM5NyA5NC41MDAxQzEyMy4zOTcgOTMuMzAwMSAxMjEuOTk3IDkyLjYwMDEgMTIwLjQ5NyA5Mi41MDAxQzEyMC4yOTcgOTIuNDAwMSAxMjAuMTk3IDkyLjQwMDEgMTE5Ljk5NyA5Mi40MDAxWiIgZmlsbD0id2hpdGUiLz4KPHBhdGggZD0iTTE0OC42IDkyLjQwMDFIMTQ4LjVIMTQ4LjRIMTQyLjlDMTM5LjQgOTIuNDAwMSAxMzYuNSA5NS4yMDAxIDEzNi41IDk4LjgwMDFDMTM2LjUgMTAyLjIgMTM5LjIgMTA1IDE0Mi41IDEwNS4xVjE0OC4xQzE0Mi41IDE1MS40IDE0NS4yIDE1NC4yIDE0OC42IDE1NC4yQzE1MS45IDE1NC4yIDE1NC43IDE1MS41IDE1NC43IDE0OC4xVjk4LjgwMDFWOTguNTAwMUMxNTQuNyA5NS4xMDAxIDE1MiA5Mi40MDAxIDE0OC42IDkyLjQwMDFaIiBmaWxsPSJ3aGl0ZSIvPgo8cGF0aCBkPSJNMjI1LjA5NyAxMjAuNUwyMTAuNzk3IDk1LjYwMDFDMjA5Ljc5NyA5My43MDAxIDIwNy43OTcgOTIuNjAwMSAyMDUuNjk3IDkyLjYwMDFIMTkxLjg5N0gxOTEuNjk3SDE3Ny44OTdDMTc1Ljc5NyA5Mi42MDAxIDE3My43OTcgOTMuNzAwMSAxNzIuNzk3IDk1LjYwMDFMMTU4LjQ5NyAxMjAuNUMxNTcuOTk3IDEyMS4zIDE1Ny43OTcgMTIyLjEgMTU3Ljc5NyAxMjNDMTU3Ljc5NyAxMjMuOSAxNTcuOTk3IDEyNC44IDE1OC40OTcgMTI1LjZMMTcyLjc5NyAxNTAuNUMxNzMuODk3IDE1Mi40IDE3NS43OTcgMTUzLjUgMTc3Ljg5NyAxNTMuNUMxNzcuODk3IDE1My41IDE4NC43OTcgMTUzLjUgMTkxLjY5NyAxNTMuNUMxOTEuNzk3IDE1My41IDE5MS43OTcgMTUzLjUgMTkxLjg5NyAxNTMuNUMxOTguNzk3IDE1My41IDIwNS42OTcgMTUzLjUgMjA1LjY5NyAxNTMuNUMyMDcuNzk3IDE1My41IDIwOS43OTcgMTUyLjQgMjEwLjc5NyAxNTAuNUwyMjUuMDk3IDEyNS42QzIyNS41OTcgMTI0LjggMjI1Ljc5NyAxMjMuOSAyMjUuNzk3IDEyM0MyMjUuNzk3IDEyMi4yIDIyNS41OTcgMTIxLjMgMjI1LjA5NyAxMjAuNVpNMjAyLjE5NyAxNDEuNUgxOTEuODk3SDE5MS42OTdIMTgxLjM5N0wxNzAuODk3IDEyMy4xTDE4MS4zOTcgMTA0LjhIMTkxLjY5N0gxOTEuODk3SDIwMi4xOTdMMjEyLjY5NyAxMjMuMUwyMDIuMTk3IDE0MS41WiIgZmlsbD0id2hpdGUiLz4KPC9zdmc+Cg==;" vertex="1" parent="VSY3t3KkXbQNRABJx7bC-1">
          <mxGeometry x="40" y="80.00000000000003" width="111" height="79.34" as="geometry" />
        </mxCell>
        <mxCell id="VSY3t3KkXbQNRABJx7bC-3" value="" style="shape=image;aspect=fixed;image=data:image/svg+xml,PHN2ZyB4bWxucz0iaHR0cDovL3d3dy53My5vcmcvMjAwMC9zdmciIHZpZXdCb3g9IjAgMCAxMjggMTI4Ij48cGF0aCBmaWxsLXJ1bGU9ImV2ZW5vZGQiIGNsaXAtcnVsZT0iZXZlbm9kZCIgZmlsbD0iIzQzOTkzNCIgZD0iTTg4LjAzOCA0Mi44MTJjMS42MDUgNC42NDMgMi43NjEgOS4zODMgMy4xNDEgMTQuMjk2LjQ3MiA2LjA5NS4yNTYgMTIuMTQ3LTEuMDI5IDE4LjE0Mi0uMDM1LjE2NS0uMTA5LjMyLS4xNjQuNDgtLjQwMy4wMDEtLjgxNC0uMDQ5LTEuMjA4LjAxMi0zLjMyOS41MjMtNi42NTUgMS4wNjUtOS45ODEgMS42MDQtMy40MzguNTU3LTYuODgxIDEuMDkyLTEwLjMxMyAxLjY4Ny0xLjIxNi4yMS0yLjcyMS0uMDQxLTMuMjEyIDEuNjQxLS4wMTQuMDQ2LS4xNTQuMDU0LS4yMzUuMDhsLjE2Ni0xMC4wNTFjLS4wNTctOC4wODQtLjExMy0xNi4xNjgtLjE2OS0yNC4yNTJsMS42MDItLjI3NWMyLjYyLS40MjkgNS4yNC0uODY0IDcuODYyLTEuMjgxIDMuMTI5LS40OTcgNi4yNjEtLjk4IDkuMzkyLTEuNDY1IDEuMzgxLS4yMTUgMi43NjQtLjQxMiA0LjE0OC0uNjE4eiIvPjxwYXRoIGZpbGwtcnVsZT0iZXZlbm9kZCIgY2xpcC1ydWxlPSJldmVub2RkIiBmaWxsPSIjNDVBNTM4IiBkPSJNNjEuNzI5IDExMC4wNTRjLTEuNjktMS40NTMtMy40MzktMi44NDItNS4wNTktNC4zNy04LjcxNy04LjIyMi0xNS4wOTMtMTcuODk5LTE4LjIzMy0yOS41NjYtLjg2NS0zLjIxMS0xLjQ0Mi02LjQ3NC0xLjYyNy05Ljc5Mi0uMTMtMi4zMjItLjMxOC00LjY2NS0uMTU0LTYuOTc1LjQzNy02LjE0NCAxLjMyNS0xMi4yMjkgMy4xMjctMTguMTQ3bC4wOTktLjEzOGMuMTc1LjIzMy40MjcuNDM5LjUxNi43MDIgMS43NTkgNS4xOCAzLjUwNSAxMC4zNjQgNS4yNDIgMTUuNTUxIDUuNDU4IDE2LjMgMTAuOTA5IDMyLjYwNCAxNi4zNzYgNDguOS4xMDcuMzE4LjM4NC41NzkuNTgzLjg2NmwtLjg3IDIuOTY5eiIvPjxwYXRoIGZpbGwtcnVsZT0iZXZlbm9kZCIgY2xpcC1ydWxlPSJldmVub2RkIiBmaWxsPSIjNDZBMDM3IiBkPSJNODguMDM4IDQyLjgxMmMtMS4zODQuMjA2LTIuNzY4LjQwMy00LjE0OS42MTYtMy4xMzEuNDg1LTYuMjYzLjk2OC05LjM5MiAxLjQ2NS0yLjYyMi40MTctNS4yNDIuODUyLTcuODYyIDEuMjgxbC0xLjYwMi4yNzUtLjAxMi0xLjA0NWMtLjA1My0uODU5LS4xNDQtMS43MTctLjE1NC0yLjU3Ni0uMDY5LTUuNDc4LS4xMTItMTAuOTU2LS4xOC0xNi40MzQtLjA0Mi0zLjQyOS0uMTA1LTYuODU3LS4xNzUtMTAuMjg1LS4wNDMtMi4xMy0uMDg5LTQuMjYxLS4xODUtNi4zODgtLjA1Mi0xLjE0My0uMjM2LTIuMjgtLjMxMS0zLjQyMy0uMDQyLS42NTcuMDE2LTEuMzE5LjAyOS0xLjk3OS44MTcgMS41ODMgMS42MTYgMy4xNzggMi40NTYgNC43NDkgMS4zMjcgMi40ODQgMy40NDEgNC4zMTQgNS4zNDQgNi4zMTEgNy41MjMgNy44OTIgMTIuODY0IDE3LjA2OCAxNi4xOTMgMjcuNDMzeiIvPjxwYXRoIGZpbGwtcnVsZT0iZXZlbm9kZCIgY2xpcC1ydWxlPSJldmVub2RkIiBmaWxsPSIjNDA5NDMzIiBkPSJNNjUuMDM2IDgwLjc1M2MuMDgxLS4wMjYuMjIyLS4wMzQuMjM1LS4wOC40OTEtMS42ODIgMS45OTYtMS40MzEgMy4yMTItMS42NDEgMy40MzItLjU5NCA2Ljg3NS0xLjEzIDEwLjMxMy0xLjY4NyAzLjMyNi0uNTM5IDYuNjUyLTEuMDgxIDkuOTgxLTEuNjA0LjM5NC0uMDYyLjgwNS0uMDExIDEuMjA4LS4wMTItLjYyMiAyLjIyLTEuMTEyIDQuNDg4LTEuOTAxIDYuNjQ3LS44OTYgMi40NDktMS45OCA0LjgzOS0zLjEzMSA3LjE4Mi0xLjcyIDMuNTAzLTMuODYzIDYuNzctNi4zNTMgOS43NjMtMS45MTkgMi4zMDgtNC4wNTggNC40NDEtNi4yMDIgNi41NDgtMS4xODUgMS4xNjUtMi41ODIgMi4xMTQtMy44ODIgMy4xNjFsLS4zMzctLjIzLTEuMjE0LTEuMDM4LTEuMjU2LTIuNzUzYy0uODY1LTMuMjIzLTEuMzE5LTYuNTA0LTEuMzk0LTkuODM4bC4wMjMtLjU2MS4xNzEtMi40MjZjLjA1Ny0uODI4LjEzMy0xLjY1NS4xNjgtMi40ODUuMTI5LTIuOTgyLjI0MS01Ljk2NC4zNTktOC45NDZ6Ii8+PHBhdGggZmlsbC1ydWxlPSJldmVub2RkIiBjbGlwLXJ1bGU9ImV2ZW5vZGQiIGZpbGw9IiM0RkFBNDEiIGQ9Ik02NS4wMzYgODAuNzUzYy0uMTE4IDIuOTgyLS4yMyA1Ljk2NC0uMzU3IDguOTQ3LS4wMzUuODMtLjExMSAxLjY1Ny0uMTY4IDIuNDg1bC0uNzY1LjI4OWMtMS42OTktNS4wMDItMy4zOTktOS45NTEtNS4wNjItMTQuOTEzLTIuNzUtOC4yMDktNS40NjctMTYuNDMxLTguMjEzLTI0LjY0Mi0yLjIxNy02LjYyOC00LjQ1Mi0xMy4yNDktNi43LTE5Ljg2Ny0uMTA1LS4zMS0uNDA3LS41NTItLjYxNy0uODI2bDQuODk2LTkuMDAyYy4xNjguMjkyLjM5LjU2NS40OTYuODc5IDIuMjY1IDYuNzAzIDQuNTI2IDEzLjQwNyA2Ljc2OCAyMC4xMTggMi45MTYgOC43MyA1LjgxNCAxNy40NjcgOC43MjggMjYuMTk4LjExNi4zNDkuMzA4LjY3MS40OTEgMS4wNjJsLjY3LS43OGMtLjA1NiAzLjM1MS0uMTEyIDYuNzAxLS4xNjcgMTAuMDUyeiIvPjxwYXRoIGZpbGwtcnVsZT0iZXZlbm9kZCIgY2xpcC1ydWxlPSJldmVub2RkIiBmaWxsPSIjNEFBNzNDIiBkPSJNNDMuMTU1IDMyLjIyN2MuMjEuMjc0LjUxMS41MTYuNjE3LjgyNiAyLjI0OCA2LjYxOCA0LjQ4MyAxMy4yMzkgNi43IDE5Ljg2NyAyLjc0NiA4LjIxMSA1LjQ2MyAxNi40MzMgOC4yMTMgMjQuNjQyIDEuNjYyIDQuOTYxIDMuMzYyIDkuOTExIDUuMDYyIDE0LjkxM2wuNzY1LS4yODktLjE3MSAyLjQyNi0uMTU1LjU1OWMtLjI2NiAyLjY1Ni0uNDkgNS4zMTgtLjgxNCA3Ljk2OC0uMTYzIDEuMzI4LS41MDkgMi42MzItLjc3MiAzLjk0Ny0uMTk4LS4yODctLjQ3Ni0uNTQ4LS41ODMtLjg2Ni01LjQ2Ny0xNi4yOTctMTAuOTE4LTMyLjYtMTYuMzc2LTQ4LjktMS43MzctNS4xODctMy40ODMtMTAuMzcxLTUuMjQyLTE1LjU1MS0uMDg5LS4yNjMtLjM0LS40NjktLjUxNi0uNzAyIDEuMDktMi45NDcgMi4xODEtNS44OTQgMy4yNzItOC44NHoiLz48cGF0aCBmaWxsLXJ1bGU9ImV2ZW5vZGQiIGNsaXAtcnVsZT0iZXZlbm9kZCIgZmlsbD0iIzU3QUU0NyIgZD0iTTY1LjIwMiA3MC43MDJsLS42Ny43OGMtLjE4My0uMzkxLS4zNzUtLjcxNC0uNDkxLTEuMDYyLTIuOTEzLTguNzMxLTUuODEyLTE3LjQ2OC04LjcyOC0yNi4xOTgtMi4yNDItNi43MTEtNC41MDMtMTMuNDE1LTYuNzY4LTIwLjExOC0uMTA1LS4zMTQtLjMyNy0uNTg4LS40OTYtLjg3OWw2LjA1NS03Ljk2NWMuMTkxLjI1NS40NjMuNDgyLjU2Mi43NjkgMS42ODEgNC45MjEgMy4zNDcgOS44NDggNS4wMDMgMTQuNzc4IDEuNTQ3IDQuNjA0IDMuMDcxIDkuMjE1IDQuNjM2IDEzLjgxMy4xMDUuMzA4LjQ3LjUyNi43MTQuNzg2bC4wMTIgMS4wNDVjLjA1OCA4LjA4Mi4xMTUgMTYuMTY3LjE3MSAyNC4yNTF6Ii8+PHBhdGggZmlsbC1ydWxlPSJldmVub2RkIiBjbGlwLXJ1bGU9ImV2ZW5vZGQiIGZpbGw9IiM2MEIyNEYiIGQ9Ik02NS4wMjEgNDUuNDA0Yy0uMjQ0LS4yNi0uNjA5LS40NzgtLjcxNC0uNzg2LTEuNTY1LTQuNTk4LTMuMDg5LTkuMjA5LTQuNjM2LTEzLjgxMy0xLjY1Ni00LjkzLTMuMzIyLTkuODU2LTUuMDAzLTE0Ljc3OC0uMDk5LS4yODctLjM3MS0uNTE0LS41NjItLjc2OSAxLjk2OS0xLjkyOCAzLjg3Ny0zLjkyNSA1LjkyNS01Ljc2NCAxLjgyMS0xLjYzNCAzLjI4NS0zLjM4NiAzLjM1Mi01Ljk2OC4wMDMtLjEwNy4wNTktLjIxNC4xNDUtLjUxNGwuNTE5IDEuMzA2Yy0uMDEzLjY2MS0uMDcyIDEuMzIyLS4wMjkgMS45NzkuMDc1IDEuMTQzLjI1OSAyLjI4LjMxMSAzLjQyMy4wOTYgMi4xMjcuMTQyIDQuMjU4LjE4NSA2LjM4OC4wNjkgMy40MjguMTMyIDYuODU2LjE3NSAxMC4yODUuMDY3IDUuNDc4LjExMSAxMC45NTYuMTggMTYuNDM0LjAwOC44NjEuMDk4IDEuNzE4LjE1MiAyLjU3N3oiLz48cGF0aCBmaWxsLXJ1bGU9ImV2ZW5vZGQiIGNsaXAtcnVsZT0iZXZlbm9kZCIgZmlsbD0iI0E5QUE4OCIgZD0iTTYyLjU5OCAxMDcuMDg1Yy4yNjMtMS4zMTUuNjA5LTIuNjIuNzcyLTMuOTQ3LjMyNS0yLjY0OS41NDgtNS4zMTIuODE0LTcuOTY4bC4wNjYtLjAxLjA2Ni4wMTFjLjA3NSAzLjMzNC41MjkgNi42MTUgMS4zOTQgOS44MzgtLjE3Ni4yMzItLjQyNS40MzktLjUxOC43MDEtLjcyNyAyLjA1LTEuNDEyIDQuMTE2LTIuMTQzIDYuMTY2LS4xLjI4LS4zNzguNDk4LS41NzQuNzQ0bC0uNzQ3LTIuNTY2Ljg3LTIuOTY5eiIvPjxwYXRoIGZpbGwtcnVsZT0iZXZlbm9kZCIgY2xpcC1ydWxlPSJldmVub2RkIiBmaWxsPSIjQjZCNTk4IiBkPSJNNjIuNDc2IDExMi42MjFjLjE5Ni0uMjQ2LjQ3NS0uNDY0LjU3NC0uNzQ0LjczMS0yLjA1IDEuNDE3LTQuMTE1IDIuMTQzLTYuMTY2LjA5My0uMjYyLjM0MS0uNDY5LjUxOC0uNzAxbDEuMjU1IDIuNzU0Yy0uMjQ4LjM1Mi0uNTkuNjY5LS43MjggMS4wNjFsLTIuNDA0IDcuMDU5Yy0uMDk5LjI4My0uNDM3LjQ4My0uNjYzLjcyMmwtLjY5NS0zLjk4NXoiLz48cGF0aCBmaWxsLXJ1bGU9ImV2ZW5vZGQiIGNsaXAtcnVsZT0iZXZlbm9kZCIgZmlsbD0iI0MyQzFBNyIgZD0iTTYzLjE3MSAxMTYuNjA1Yy4yMjctLjIzOC41NjQtLjQzOS42NjMtLjcyMmwyLjQwNC03LjA1OWMuMTM3LS4zOTEuNDgtLjcwOS43MjgtMS4wNjFsMS4yMTUgMS4wMzdjLS41ODcuNTgtLjkxMyAxLjI1LS43MTcgMi4wOTdsLS4zNjkgMS4yMDhjLS4xNjguMjA3LS40MTEuMzg3LS40OTQuNjI0LS44MzkgMi40MDMtMS42NCA0LjgxOS0yLjQ4NSA3LjIyMi0uMTA3LjMwNS0uNDA0LjU0NC0uNjE0LjgxMi0uMTA5LTEuMzg3LS4yMi0yLjc3MS0uMzMxLTQuMTU4eiIvPjxwYXRoIGZpbGwtcnVsZT0iZXZlbm9kZCIgY2xpcC1ydWxlPSJldmVub2RkIiBmaWxsPSIjQ0VDREI3IiBkPSJNNjMuNTAzIDEyMC43NjNjLjIwOS0uMjY5LjUwNi0uNTA4LjYxNC0uODEyLjg0NS0yLjQwMiAxLjY0Ni00LjgxOCAyLjQ4NS03LjIyMi4wODMtLjIzNi4zMjUtLjQxNy40OTQtLjYyNGwtLjUwOSA1LjU0NWMtLjEzNi4xNTctLjMzMy4yOTQtLjM5OC40NzctLjU3NSAxLjYxNC0xLjExNyAzLjI0LTEuNjk0IDQuODU0LS4xMTkuMzMzLS4zNDcuNjI3LS41MjUuOTM4LS4xNTgtLjIwNy0uNDQxLS40MDctLjQ1NC0uNjIzLS4wNTEtLjg0MS0uMDE2LTEuNjg4LS4wMTMtMi41MzN6Ii8+PHBhdGggZmlsbC1ydWxlPSJldmVub2RkIiBjbGlwLXJ1bGU9ImV2ZW5vZGQiIGZpbGw9IiNEQkRBQzciIGQ9Ik02My45NjkgMTIzLjkxOWMuMTc4LS4zMTIuNDA2LS42MDYuNTI1LS45MzguNTc4LTEuNjEzIDEuMTE5LTMuMjM5IDEuNjk0LTQuODU0LjA2NS0uMTgzLjI2My0uMzE5LjM5OC0uNDc3bC4wMTIgMy42NC0xLjIxOCAzLjEyNC0xLjQxMS0uNDk1eiIvPjxwYXRoIGZpbGwtcnVsZT0iZXZlbm9kZCIgY2xpcC1ydWxlPSJldmVub2RkIiBmaWxsPSIjRUJFOURDIiBkPSJNNjUuMzggMTI0LjQxNWwxLjIxOC0zLjEyNC4yNTEgMy42OTYtMS40NjktLjU3MnoiLz48cGF0aCBmaWxsLXJ1bGU9ImV2ZW5vZGQiIGNsaXAtcnVsZT0iZXZlbm9kZCIgZmlsbD0iI0NFQ0RCNyIgZD0iTTY3LjQ2NCAxMTAuODk4Yy0uMTk2LS44NDcuMTI5LTEuNTE4LjcxNy0yLjA5N2wuMzM3LjIzLTEuMDU0IDEuODY3eiIvPjxwYXRoIGZpbGwtcnVsZT0iZXZlbm9kZCIgY2xpcC1ydWxlPSJldmVub2RkIiBmaWxsPSIjNEZBQTQxIiBkPSJNNjQuMzE2IDk1LjE3MmwtLjA2Ni0uMDExLS4wNjYuMDEuMTU1LS41NTktLjAyMy41NnoiLz48L3N2Zz4=;verticalAlign=bottom;" vertex="1" parent="VSY3t3KkXbQNRABJx7bC-1">
          <mxGeometry x="510" y="80" width="100" height="100" as="geometry" />
        </mxCell>
        <mxCell id="VSY3t3KkXbQNRABJx7bC-4" value="" style="shape=cylinder3;whiteSpace=wrap;html=1;boundedLbl=1;backgroundOutline=1;size=15;" vertex="1" parent="VSY3t3KkXbQNRABJx7bC-1">
          <mxGeometry x="65.5" y="300" width="60" height="80" as="geometry" />
        </mxCell>
        <mxCell id="VSY3t3KkXbQNRABJx7bC-5" value="" style="shape=image;aspect=fixed;image=data:image/svg+xml,PHN2ZyB4bWxucz0iaHR0cDovL3d3dy53My5vcmcvMjAwMC9zdmciIHZpZXdCb3g9IjAgMCAxMjggMTI4Ij48cGF0aCBmaWxsLXJ1bGU9ImV2ZW5vZGQiIGNsaXAtcnVsZT0iZXZlbm9kZCIgZmlsbD0iIzQzOTkzNCIgZD0iTTg4LjAzOCA0Mi44MTJjMS42MDUgNC42NDMgMi43NjEgOS4zODMgMy4xNDEgMTQuMjk2LjQ3MiA2LjA5NS4yNTYgMTIuMTQ3LTEuMDI5IDE4LjE0Mi0uMDM1LjE2NS0uMTA5LjMyLS4xNjQuNDgtLjQwMy4wMDEtLjgxNC0uMDQ5LTEuMjA4LjAxMi0zLjMyOS41MjMtNi42NTUgMS4wNjUtOS45ODEgMS42MDQtMy40MzguNTU3LTYuODgxIDEuMDkyLTEwLjMxMyAxLjY4Ny0xLjIxNi4yMS0yLjcyMS0uMDQxLTMuMjEyIDEuNjQxLS4wMTQuMDQ2LS4xNTQuMDU0LS4yMzUuMDhsLjE2Ni0xMC4wNTFjLS4wNTctOC4wODQtLjExMy0xNi4xNjgtLjE2OS0yNC4yNTJsMS42MDItLjI3NWMyLjYyLS40MjkgNS4yNC0uODY0IDcuODYyLTEuMjgxIDMuMTI5LS40OTcgNi4yNjEtLjk4IDkuMzkyLTEuNDY1IDEuMzgxLS4yMTUgMi43NjQtLjQxMiA0LjE0OC0uNjE4eiIvPjxwYXRoIGZpbGwtcnVsZT0iZXZlbm9kZCIgY2xpcC1ydWxlPSJldmVub2RkIiBmaWxsPSIjNDVBNTM4IiBkPSJNNjEuNzI5IDExMC4wNTRjLTEuNjktMS40NTMtMy40MzktMi44NDItNS4wNTktNC4zNy04LjcxNy04LjIyMi0xNS4wOTMtMTcuODk5LTE4LjIzMy0yOS41NjYtLjg2NS0zLjIxMS0xLjQ0Mi02LjQ3NC0xLjYyNy05Ljc5Mi0uMTMtMi4zMjItLjMxOC00LjY2NS0uMTU0LTYuOTc1LjQzNy02LjE0NCAxLjMyNS0xMi4yMjkgMy4xMjctMTguMTQ3bC4wOTktLjEzOGMuMTc1LjIzMy40MjcuNDM5LjUxNi43MDIgMS43NTkgNS4xOCAzLjUwNSAxMC4zNjQgNS4yNDIgMTUuNTUxIDUuNDU4IDE2LjMgMTAuOTA5IDMyLjYwNCAxNi4zNzYgNDguOS4xMDcuMzE4LjM4NC41NzkuNTgzLjg2NmwtLjg3IDIuOTY5eiIvPjxwYXRoIGZpbGwtcnVsZT0iZXZlbm9kZCIgY2xpcC1ydWxlPSJldmVub2RkIiBmaWxsPSIjNDZBMDM3IiBkPSJNODguMDM4IDQyLjgxMmMtMS4zODQuMjA2LTIuNzY4LjQwMy00LjE0OS42MTYtMy4xMzEuNDg1LTYuMjYzLjk2OC05LjM5MiAxLjQ2NS0yLjYyMi40MTctNS4yNDIuODUyLTcuODYyIDEuMjgxbC0xLjYwMi4yNzUtLjAxMi0xLjA0NWMtLjA1My0uODU5LS4xNDQtMS43MTctLjE1NC0yLjU3Ni0uMDY5LTUuNDc4LS4xMTItMTAuOTU2LS4xOC0xNi40MzQtLjA0Mi0zLjQyOS0uMTA1LTYuODU3LS4xNzUtMTAuMjg1LS4wNDMtMi4xMy0uMDg5LTQuMjYxLS4xODUtNi4zODgtLjA1Mi0xLjE0My0uMjM2LTIuMjgtLjMxMS0zLjQyMy0uMDQyLS42NTcuMDE2LTEuMzE5LjAyOS0xLjk3OS44MTcgMS41ODMgMS42MTYgMy4xNzggMi40NTYgNC43NDkgMS4zMjcgMi40ODQgMy40NDEgNC4zMTQgNS4zNDQgNi4zMTEgNy41MjMgNy44OTIgMTIuODY0IDE3LjA2OCAxNi4xOTMgMjcuNDMzeiIvPjxwYXRoIGZpbGwtcnVsZT0iZXZlbm9kZCIgY2xpcC1ydWxlPSJldmVub2RkIiBmaWxsPSIjNDA5NDMzIiBkPSJNNjUuMDM2IDgwLjc1M2MuMDgxLS4wMjYuMjIyLS4wMzQuMjM1LS4wOC40OTEtMS42ODIgMS45OTYtMS40MzEgMy4yMTItMS42NDEgMy40MzItLjU5NCA2Ljg3NS0xLjEzIDEwLjMxMy0xLjY4NyAzLjMyNi0uNTM5IDYuNjUyLTEuMDgxIDkuOTgxLTEuNjA0LjM5NC0uMDYyLjgwNS0uMDExIDEuMjA4LS4wMTItLjYyMiAyLjIyLTEuMTEyIDQuNDg4LTEuOTAxIDYuNjQ3LS44OTYgMi40NDktMS45OCA0LjgzOS0zLjEzMSA3LjE4Mi0xLjcyIDMuNTAzLTMuODYzIDYuNzctNi4zNTMgOS43NjMtMS45MTkgMi4zMDgtNC4wNTggNC40NDEtNi4yMDIgNi41NDgtMS4xODUgMS4xNjUtMi41ODIgMi4xMTQtMy44ODIgMy4xNjFsLS4zMzctLjIzLTEuMjE0LTEuMDM4LTEuMjU2LTIuNzUzYy0uODY1LTMuMjIzLTEuMzE5LTYuNTA0LTEuMzk0LTkuODM4bC4wMjMtLjU2MS4xNzEtMi40MjZjLjA1Ny0uODI4LjEzMy0xLjY1NS4xNjgtMi40ODUuMTI5LTIuOTgyLjI0MS01Ljk2NC4zNTktOC45NDZ6Ii8+PHBhdGggZmlsbC1ydWxlPSJldmVub2RkIiBjbGlwLXJ1bGU9ImV2ZW5vZGQiIGZpbGw9IiM0RkFBNDEiIGQ9Ik02NS4wMzYgODAuNzUzYy0uMTE4IDIuOTgyLS4yMyA1Ljk2NC0uMzU3IDguOTQ3LS4wMzUuODMtLjExMSAxLjY1Ny0uMTY4IDIuNDg1bC0uNzY1LjI4OWMtMS42OTktNS4wMDItMy4zOTktOS45NTEtNS4wNjItMTQuOTEzLTIuNzUtOC4yMDktNS40NjctMTYuNDMxLTguMjEzLTI0LjY0Mi0yLjIxNy02LjYyOC00LjQ1Mi0xMy4yNDktNi43LTE5Ljg2Ny0uMTA1LS4zMS0uNDA3LS41NTItLjYxNy0uODI2bDQuODk2LTkuMDAyYy4xNjguMjkyLjM5LjU2NS40OTYuODc5IDIuMjY1IDYuNzAzIDQuNTI2IDEzLjQwNyA2Ljc2OCAyMC4xMTggMi45MTYgOC43MyA1LjgxNCAxNy40NjcgOC43MjggMjYuMTk4LjExNi4zNDkuMzA4LjY3MS40OTEgMS4wNjJsLjY3LS43OGMtLjA1NiAzLjM1MS0uMTEyIDYuNzAxLS4xNjcgMTAuMDUyeiIvPjxwYXRoIGZpbGwtcnVsZT0iZXZlbm9kZCIgY2xpcC1ydWxlPSJldmVub2RkIiBmaWxsPSIjNEFBNzNDIiBkPSJNNDMuMTU1IDMyLjIyN2MuMjEuMjc0LjUxMS41MTYuNjE3LjgyNiAyLjI0OCA2LjYxOCA0LjQ4MyAxMy4yMzkgNi43IDE5Ljg2NyAyLjc0NiA4LjIxMSA1LjQ2MyAxNi40MzMgOC4yMTMgMjQuNjQyIDEuNjYyIDQuOTYxIDMuMzYyIDkuOTExIDUuMDYyIDE0LjkxM2wuNzY1LS4yODktLjE3MSAyLjQyNi0uMTU1LjU1OWMtLjI2NiAyLjY1Ni0uNDkgNS4zMTgtLjgxNCA3Ljk2OC0uMTYzIDEuMzI4LS41MDkgMi42MzItLjc3MiAzLjk0Ny0uMTk4LS4yODctLjQ3Ni0uNTQ4LS41ODMtLjg2Ni01LjQ2Ny0xNi4yOTctMTAuOTE4LTMyLjYtMTYuMzc2LTQ4LjktMS43MzctNS4xODctMy40ODMtMTAuMzcxLTUuMjQyLTE1LjU1MS0uMDg5LS4yNjMtLjM0LS40NjktLjUxNi0uNzAyIDEuMDktMi45NDcgMi4xODEtNS44OTQgMy4yNzItOC44NHoiLz48cGF0aCBmaWxsLXJ1bGU9ImV2ZW5vZGQiIGNsaXAtcnVsZT0iZXZlbm9kZCIgZmlsbD0iIzU3QUU0NyIgZD0iTTY1LjIwMiA3MC43MDJsLS42Ny43OGMtLjE4My0uMzkxLS4zNzUtLjcxNC0uNDkxLTEuMDYyLTIuOTEzLTguNzMxLTUuODEyLTE3LjQ2OC04LjcyOC0yNi4xOTgtMi4yNDItNi43MTEtNC41MDMtMTMuNDE1LTYuNzY4LTIwLjExOC0uMTA1LS4zMTQtLjMyNy0uNTg4LS40OTYtLjg3OWw2LjA1NS03Ljk2NWMuMTkxLjI1NS40NjMuNDgyLjU2Mi43NjkgMS42ODEgNC45MjEgMy4zNDcgOS44NDggNS4wMDMgMTQuNzc4IDEuNTQ3IDQuNjA0IDMuMDcxIDkuMjE1IDQuNjM2IDEzLjgxMy4xMDUuMzA4LjQ3LjUyNi43MTQuNzg2bC4wMTIgMS4wNDVjLjA1OCA4LjA4Mi4xMTUgMTYuMTY3LjE3MSAyNC4yNTF6Ii8+PHBhdGggZmlsbC1ydWxlPSJldmVub2RkIiBjbGlwLXJ1bGU9ImV2ZW5vZGQiIGZpbGw9IiM2MEIyNEYiIGQ9Ik02NS4wMjEgNDUuNDA0Yy0uMjQ0LS4yNi0uNjA5LS40NzgtLjcxNC0uNzg2LTEuNTY1LTQuNTk4LTMuMDg5LTkuMjA5LTQuNjM2LTEzLjgxMy0xLjY1Ni00LjkzLTMuMzIyLTkuODU2LTUuMDAzLTE0Ljc3OC0uMDk5LS4yODctLjM3MS0uNTE0LS41NjItLjc2OSAxLjk2OS0xLjkyOCAzLjg3Ny0zLjkyNSA1LjkyNS01Ljc2NCAxLjgyMS0xLjYzNCAzLjI4NS0zLjM4NiAzLjM1Mi01Ljk2OC4wMDMtLjEwNy4wNTktLjIxNC4xNDUtLjUxNGwuNTE5IDEuMzA2Yy0uMDEzLjY2MS0uMDcyIDEuMzIyLS4wMjkgMS45NzkuMDc1IDEuMTQzLjI1OSAyLjI4LjMxMSAzLjQyMy4wOTYgMi4xMjcuMTQyIDQuMjU4LjE4NSA2LjM4OC4wNjkgMy40MjguMTMyIDYuODU2LjE3NSAxMC4yODUuMDY3IDUuNDc4LjExMSAxMC45NTYuMTggMTYuNDM0LjAwOC44NjEuMDk4IDEuNzE4LjE1MiAyLjU3N3oiLz48cGF0aCBmaWxsLXJ1bGU9ImV2ZW5vZGQiIGNsaXAtcnVsZT0iZXZlbm9kZCIgZmlsbD0iI0E5QUE4OCIgZD0iTTYyLjU5OCAxMDcuMDg1Yy4yNjMtMS4zMTUuNjA5LTIuNjIuNzcyLTMuOTQ3LjMyNS0yLjY0OS41NDgtNS4zMTIuODE0LTcuOTY4bC4wNjYtLjAxLjA2Ni4wMTFjLjA3NSAzLjMzNC41MjkgNi42MTUgMS4zOTQgOS44MzgtLjE3Ni4yMzItLjQyNS40MzktLjUxOC43MDEtLjcyNyAyLjA1LTEuNDEyIDQuMTE2LTIuMTQzIDYuMTY2LS4xLjI4LS4zNzguNDk4LS41NzQuNzQ0bC0uNzQ3LTIuNTY2Ljg3LTIuOTY5eiIvPjxwYXRoIGZpbGwtcnVsZT0iZXZlbm9kZCIgY2xpcC1ydWxlPSJldmVub2RkIiBmaWxsPSIjQjZCNTk4IiBkPSJNNjIuNDc2IDExMi42MjFjLjE5Ni0uMjQ2LjQ3NS0uNDY0LjU3NC0uNzQ0LjczMS0yLjA1IDEuNDE3LTQuMTE1IDIuMTQzLTYuMTY2LjA5My0uMjYyLjM0MS0uNDY5LjUxOC0uNzAxbDEuMjU1IDIuNzU0Yy0uMjQ4LjM1Mi0uNTkuNjY5LS43MjggMS4wNjFsLTIuNDA0IDcuMDU5Yy0uMDk5LjI4My0uNDM3LjQ4My0uNjYzLjcyMmwtLjY5NS0zLjk4NXoiLz48cGF0aCBmaWxsLXJ1bGU9ImV2ZW5vZGQiIGNsaXAtcnVsZT0iZXZlbm9kZCIgZmlsbD0iI0MyQzFBNyIgZD0iTTYzLjE3MSAxMTYuNjA1Yy4yMjctLjIzOC41NjQtLjQzOS42NjMtLjcyMmwyLjQwNC03LjA1OWMuMTM3LS4zOTEuNDgtLjcwOS43MjgtMS4wNjFsMS4yMTUgMS4wMzdjLS41ODcuNTgtLjkxMyAxLjI1LS43MTcgMi4wOTdsLS4zNjkgMS4yMDhjLS4xNjguMjA3LS40MTEuMzg3LS40OTQuNjI0LS44MzkgMi40MDMtMS42NCA0LjgxOS0yLjQ4NSA3LjIyMi0uMTA3LjMwNS0uNDA0LjU0NC0uNjE0LjgxMi0uMTA5LTEuMzg3LS4yMi0yLjc3MS0uMzMxLTQuMTU4eiIvPjxwYXRoIGZpbGwtcnVsZT0iZXZlbm9kZCIgY2xpcC1ydWxlPSJldmVub2RkIiBmaWxsPSIjQ0VDREI3IiBkPSJNNjMuNTAzIDEyMC43NjNjLjIwOS0uMjY5LjUwNi0uNTA4LjYxNC0uODEyLjg0NS0yLjQwMiAxLjY0Ni00LjgxOCAyLjQ4NS03LjIyMi4wODMtLjIzNi4zMjUtLjQxNy40OTQtLjYyNGwtLjUwOSA1LjU0NWMtLjEzNi4xNTctLjMzMy4yOTQtLjM5OC40NzctLjU3NSAxLjYxNC0xLjExNyAzLjI0LTEuNjk0IDQuODU0LS4xMTkuMzMzLS4zNDcuNjI3LS41MjUuOTM4LS4xNTgtLjIwNy0uNDQxLS40MDctLjQ1NC0uNjIzLS4wNTEtLjg0MS0uMDE2LTEuNjg4LS4wMTMtMi41MzN6Ii8+PHBhdGggZmlsbC1ydWxlPSJldmVub2RkIiBjbGlwLXJ1bGU9ImV2ZW5vZGQiIGZpbGw9IiNEQkRBQzciIGQ9Ik02My45NjkgMTIzLjkxOWMuMTc4LS4zMTIuNDA2LS42MDYuNTI1LS45MzguNTc4LTEuNjEzIDEuMTE5LTMuMjM5IDEuNjk0LTQuODU0LjA2NS0uMTgzLjI2My0uMzE5LjM5OC0uNDc3bC4wMTIgMy42NC0xLjIxOCAzLjEyNC0xLjQxMS0uNDk1eiIvPjxwYXRoIGZpbGwtcnVsZT0iZXZlbm9kZCIgY2xpcC1ydWxlPSJldmVub2RkIiBmaWxsPSIjRUJFOURDIiBkPSJNNjUuMzggMTI0LjQxNWwxLjIxOC0zLjEyNC4yNTEgMy42OTYtMS40NjktLjU3MnoiLz48cGF0aCBmaWxsLXJ1bGU9ImV2ZW5vZGQiIGNsaXAtcnVsZT0iZXZlbm9kZCIgZmlsbD0iI0NFQ0RCNyIgZD0iTTY3LjQ2NCAxMTAuODk4Yy0uMTk2LS44NDcuMTI5LTEuNTE4LjcxNy0yLjA5N2wuMzM3LjIzLTEuMDU0IDEuODY3eiIvPjxwYXRoIGZpbGwtcnVsZT0iZXZlbm9kZCIgY2xpcC1ydWxlPSJldmVub2RkIiBmaWxsPSIjNEZBQTQxIiBkPSJNNjQuMzE2IDk1LjE3MmwtLjA2Ni0uMDExLS4wNjYuMDEuMTU1LS41NTktLjAyMy41NnoiLz48L3N2Zz4=;" vertex="1" parent="VSY3t3KkXbQNRABJx7bC-1">
          <mxGeometry x="65.5" y="320" width="60" height="60" as="geometry" />
        </mxCell>
        <mxCell id="VSY3t3KkXbQNRABJx7bC-7" value="Mongodb enterprise&lt;div&gt;Blueprint&lt;/div&gt;" style="sketch=0;pointerEvents=1;shadow=0;dashed=0;html=1;strokeColor=none;fillColor=#505050;labelPosition=center;verticalLabelPosition=bottom;verticalAlign=top;outlineConnect=0;align=center;shape=mxgraph.office.concepts.script;" vertex="1" parent="VSY3t3KkXbQNRABJx7bC-1">
          <mxGeometry x="210" y="110.34" width="53" height="49" as="geometry" />
        </mxCell>
        <mxCell id="VSY3t3KkXbQNRABJx7bC-8" value="Ops-manager&amp;nbsp;" style="text;html=1;align=center;verticalAlign=middle;whiteSpace=wrap;rounded=0;" vertex="1" parent="VSY3t3KkXbQNRABJx7bC-1">
          <mxGeometry x="520" y="180" width="90" height="30" as="geometry" />
        </mxCell>
        <mxCell id="VSY3t3KkXbQNRABJx7bC-9" value="" style="endArrow=classic;html=1;rounded=0;entryX=0.408;entryY=-0.025;entryDx=0;entryDy=0;entryPerimeter=0;" edge="1" parent="VSY3t3KkXbQNRABJx7bC-1" target="VSY3t3KkXbQNRABJx7bC-4">
          <mxGeometry width="50" height="50" relative="1" as="geometry">
            <mxPoint x="80" y="160" as="sourcePoint" />
            <mxPoint x="50" y="300" as="targetPoint" />
          </mxGeometry>
        </mxCell>
        <mxCell id="VSY3t3KkXbQNRABJx7bC-10" value="#1 Backup&lt;div&gt;MongoDB CR&lt;/div&gt;" style="edgeLabel;html=1;align=center;verticalAlign=middle;resizable=0;points=[];" vertex="1" connectable="0" parent="VSY3t3KkXbQNRABJx7bC-9">
          <mxGeometry x="0.0008" y="-3" relative="1" as="geometry">
            <mxPoint as="offset" />
          </mxGeometry>
        </mxCell>
        <mxCell id="VSY3t3KkXbQNRABJx7bC-11" value="#2 execute blueprint&amp;nbsp;" style="endArrow=classic;html=1;rounded=0;exitX=0.855;exitY=0;exitDx=0;exitDy=4.35;exitPerimeter=0;" edge="1" parent="VSY3t3KkXbQNRABJx7bC-1" source="VSY3t3KkXbQNRABJx7bC-4" target="VSY3t3KkXbQNRABJx7bC-7">
          <mxGeometry x="0.2249" y="-25" width="50" height="50" relative="1" as="geometry">
            <mxPoint x="330" y="310" as="sourcePoint" />
            <mxPoint x="380" y="260" as="targetPoint" />
            <mxPoint as="offset" />
          </mxGeometry>
        </mxCell>
        <mxCell id="VSY3t3KkXbQNRABJx7bC-12" value="" style="endArrow=classic;html=1;rounded=0;" edge="1" parent="VSY3t3KkXbQNRABJx7bC-1">
          <mxGeometry width="50" height="50" relative="1" as="geometry">
            <mxPoint x="263" y="138.0035239567233" as="sourcePoint" />
            <mxPoint x="510" y="134.3080680061824" as="targetPoint" />
          </mxGeometry>
        </mxCell>
        <mxCell id="VSY3t3KkXbQNRABJx7bC-13" value="#3 onDemand snapshot" style="edgeLabel;html=1;align=center;verticalAlign=middle;resizable=0;points=[];" vertex="1" connectable="0" parent="VSY3t3KkXbQNRABJx7bC-12">
          <mxGeometry x="-0.3718" y="1" relative="1" as="geometry">
            <mxPoint x="23" y="2" as="offset" />
          </mxGeometry>
        </mxCell>
        <mxCell id="VSY3t3KkXbQNRABJx7bC-15" value="" style="endArrow=classic;startArrow=classic;html=1;rounded=0;exitX=1;exitY=0.5;exitDx=0;exitDy=0;exitPerimeter=0;entryX=0;entryY=0.75;entryDx=0;entryDy=0;" edge="1" parent="VSY3t3KkXbQNRABJx7bC-1" source="VSY3t3KkXbQNRABJx7bC-4" target="VSY3t3KkXbQNRABJx7bC-3">
          <mxGeometry width="50" height="50" relative="1" as="geometry">
            <mxPoint x="340" y="310" as="sourcePoint" />
            <mxPoint x="390" y="260" as="targetPoint" />
          </mxGeometry>
        </mxCell>
        <mxCell id="VSY3t3KkXbQNRABJx7bC-16" value="#4 get oplogs&lt;div&gt;and files&amp;nbsp;&lt;/div&gt;" style="edgeLabel;html=1;align=center;verticalAlign=middle;resizable=0;points=[];" vertex="1" connectable="0" parent="VSY3t3KkXbQNRABJx7bC-15">
          <mxGeometry x="-0.0208" y="-3" relative="1" as="geometry">
            <mxPoint as="offset" />
          </mxGeometry>
        </mxCell>
        <mxCell id="VSY3t3KkXbQNRABJx7bC-19" value="MongoDB cluster&amp;nbsp;" style="text;html=1;align=center;verticalAlign=middle;whiteSpace=wrap;rounded=0;" vertex="1" parent="VSY3t3KkXbQNRABJx7bC-1">
          <mxGeometry x="60" y="390" width="60" height="30" as="geometry" />
        </mxCell>
        <mxCell id="VSY3t3KkXbQNRABJx7bC-6" value="S3 bucket&amp;nbsp;" style="sketch=0;points=[[0,0,0],[0.25,0,0],[0.5,0,0],[0.75,0,0],[1,0,0],[0,1,0],[0.25,1,0],[0.5,1,0],[0.75,1,0],[1,1,0],[0,0.25,0],[0,0.5,0],[0,0.75,0],[1,0.25,0],[1,0.5,0],[1,0.75,0]];outlineConnect=0;fontColor=#232F3E;fillColor=#7AA116;strokeColor=#ffffff;dashed=0;verticalLabelPosition=bottom;verticalAlign=top;align=center;html=1;fontSize=12;fontStyle=0;aspect=fixed;shape=mxgraph.aws4.resourceIcon;resIcon=mxgraph.aws4.s3;" vertex="1" parent="1">
          <mxGeometry x="860" y="221" width="78" height="78" as="geometry" />
        </mxCell>
        <mxCell id="VSY3t3KkXbQNRABJx7bC-17" value="" style="endArrow=classic;html=1;rounded=0;entryX=0;entryY=0.5;entryDx=0;entryDy=0;entryPerimeter=0;" edge="1" parent="1" source="VSY3t3KkXbQNRABJx7bC-3" target="VSY3t3KkXbQNRABJx7bC-6">
          <mxGeometry width="50" height="50" relative="1" as="geometry">
            <mxPoint x="660" y="260" as="sourcePoint" />
            <mxPoint x="440" y="390" as="targetPoint" />
          </mxGeometry>
        </mxCell>
        <mxCell id="VSY3t3KkXbQNRABJx7bC-18" value="#5 store&lt;div&gt;snapshot on s3&lt;/div&gt;" style="edgeLabel;html=1;align=center;verticalAlign=middle;resizable=0;points=[];" vertex="1" connectable="0" parent="VSY3t3KkXbQNRABJx7bC-17">
          <mxGeometry x="0.1168" y="1" relative="1" as="geometry">
            <mxPoint as="offset" />
          </mxGeometry>
        </mxCell>
      </root>
    </mxGraphModel>
  </diagram>
</mxfile>
